<svg width="2853" height="611" viewBox="0 0 2853 611" fill="none" xmlns="http://www.w3.org/2000/svg">
<g clip-path="url(#clip0_4_2)">
<g opacity="0.43">
<path opacity="0.48" d="M2429.83 460.819C2383.61 498.532 2325.76 519.089 2266.11 519C2206.45 519.089 2148.61 498.532 2102.39 460.819C2056.17 498.533 1998.32 519.089 1938.66 519C1879.01 519.089 1821.16 498.532 1774.94 460.819C1728.72 498.532 1670.88 519.089 1611.22 519C1551.57 519.089 1493.72 498.533 1447.5 460.819C1401.28 498.532 1343.43 519.089 1283.78 519C1224.12 519.089 1166.28 498.532 1120.06 460.819C1073.84 498.532 1015.99 519.089 956.336 519C896.682 519.089 838.835 498.532 792.615 460.819C746.395 498.533 688.547 519.089 628.893 519C569.239 519.089 511.392 498.532 465.172 460.819C418.951 498.533 361.104 519.089 301.449 519C158.159 519 42 402.818 42 259.5C42 116.182 158.159 4.62468e-05 301.449 4.62468e-05C361.104 -0.089258 418.951 20.4676 465.172 58.181C511.392 20.4677 569.239 -0.0891258 628.893 4.62468e-05C688.547 -0.0891258 746.394 20.4677 792.614 58.181C838.835 20.4676 896.682 -0.0892744 956.336 4.62468e-05C1015.99 -0.0892083 1073.84 20.4676 1120.06 58.181C1166.28 20.4678 1224.12 -0.0890434 1283.78 4.62468e-05C1343.43 -0.0891919 1401.28 20.4676 1447.5 58.181C1493.72 20.4675 1551.57 -0.0893568 1611.22 4.62468e-05C1670.88 -0.0890434 1728.72 20.4678 1774.94 58.181C1821.16 20.4678 1879.01 -0.0890434 1938.66 4.62468e-05C1998.32 -0.0890434 2056.16 20.4678 2102.39 58.181C2148.61 20.4675 2206.45 -0.0893568 2266.11 4.62468e-05C2325.76 -0.0891919 2383.61 20.4676 2429.83 58.181C2476.05 20.4676 2533.9 -0.0892744 2593.55 4.62468e-05C2736.84 4.62468e-05 2853 116.182 2853 259.5C2853 402.818 2736.84 519 2593.55 519C2533.9 519.089 2476.05 498.533 2429.83 460.819Z" fill="#8ABAD3"/>
<path opacity="0.43" d="M2616.5 578.49C2590.67 599.564 2558.34 611.05 2525 611C2491.66 611.05 2459.33 599.564 2433.5 578.49C2407.67 599.564 2375.34 611.05 2342 611C2308.66 611.05 2276.33 599.564 2250.5 578.49C2224.67 599.564 2192.34 611.05 2159 611C2125.66 611.05 2093.33 599.564 2067.5 578.49C2041.67 599.564 2009.34 611.05 1976 611C1942.66 611.051 1910.33 599.565 1884.5 578.491C1858.67 599.564 1826.34 611.051 1793 611C1759.66 611.05 1727.33 599.564 1701.5 578.49C1675.67 599.564 1643.34 611.05 1610 611C1576.66 611.05 1544.33 599.564 1518.5 578.49C1492.67 599.564 1460.34 611.05 1427 611C1393.44 611.052 1360.91 599.412 1335 578.081C1309.09 599.412 1276.56 611.052 1243 611C1209.66 611.05 1177.33 599.564 1151.5 578.49C1125.67 599.564 1093.34 611.05 1060 611C1026.66 611.05 994.333 599.564 968.5 578.49C942.667 599.564 910.338 611.05 877 611C843.662 611.05 811.333 599.564 785.5 578.49C759.667 599.564 727.338 611.05 694 611C660.662 611.051 628.333 599.565 602.5 578.491C576.667 599.565 544.338 611.051 511 611C477.662 611.05 445.333 599.564 419.5 578.49C393.667 599.564 361.338 611.05 328 611C294.662 611.05 262.333 599.564 236.5 578.49C210.667 599.564 178.338 611.05 145 611C106.544 611 69.6623 595.723 42.4695 568.531C15.2767 541.338 0 504.457 0 466C0 427.544 15.2767 390.662 42.4695 363.47C69.6623 336.277 106.544 321 145 321C178.338 320.95 210.667 332.436 236.5 353.51C262.333 332.436 294.662 320.95 328 321C361.338 320.95 393.667 332.437 419.5 353.51C445.333 332.437 477.662 320.95 511 321C544.338 320.95 576.667 332.436 602.5 353.509C628.333 332.436 660.662 320.95 694 321C727.338 320.95 759.667 332.436 785.5 353.51C811.333 332.437 843.662 320.95 877 321C910.338 320.95 942.667 332.436 968.5 353.51C994.333 332.436 1026.66 320.95 1060 321C1093.34 320.95 1125.67 332.437 1151.5 353.51C1177.33 332.436 1209.66 320.95 1243 321C1276.56 320.949 1309.09 332.589 1335 353.919C1360.91 332.589 1393.44 320.949 1427 321C1460.34 320.95 1492.67 332.436 1518.5 353.51C1544.33 332.436 1576.66 320.95 1610 321C1643.34 320.95 1675.67 332.437 1701.5 353.51C1727.33 332.437 1759.66 320.95 1793 321C1826.34 320.95 1858.67 332.436 1884.5 353.509C1910.33 332.436 1942.66 320.95 1976 321C2009.34 320.95 2041.67 332.437 2067.5 353.51C2093.33 332.437 2125.66 320.95 2159 321C2192.34 320.95 2224.67 332.436 2250.5 353.51C2276.33 332.436 2308.66 320.95 2342 321C2375.34 320.95 2407.67 332.437 2433.5 353.51C2459.33 332.437 2491.66 320.95 2525 321C2558.34 320.95 2590.67 332.436 2616.5 353.509C2642.33 332.436 2674.66 320.95 2708 321C2746.46 321 2783.34 336.277 2810.53 363.47C2837.72 390.662 2853 427.544 2853 466C2853 504.457 2837.72 541.338 2810.53 568.531C2783.34 595.723 2746.46 611 2708 611C2674.66 611.05 2642.33 599.564 2616.5 578.49Z" fill="#5FC7E1"/>
</g>
</g>
<defs>
<clipPath id="clip0_4_2">
<rect width="2853" height="611" fill="white"/>
</clipPath>
</defs>
</svg>
